<?xml version="1.0" standalone="no"?>
<!DOCTYPE svg PUBLIC "-//W3C//DTD SVG 20010904//EN"
 "http://www.w3.org/TR/2001/REC-SVG-20010904/DTD/svg10.dtd">
<svg version="1.0" xmlns="http://www.w3.org/2000/svg"
 width="512.000000pt" height="512.000000pt" viewBox="0 0 512.000000 512.000000"
 preserveAspectRatio="xMidYMid meet">
<metadata>
Created by potrace 1.11, written by Peter Selinger 2001-2013
</metadata>
<g transform="translate(0.000000,512.000000) scale(0.100000,-0.100000)"
fill="#000000" stroke="none">
<path d="M685 4830 c-5 -10 2 -2915 8 -2940 3 -14 8 -50 12 -80 4 -30 8 -62
10 -70 2 -8 8 -44 15 -80 6 -36 31 -125 56 -198 149 -452 420 -777 824 -985
199 -103 382 -162 600 -193 107 -15 169 -19 340 -19 240 0 359 12 536 55 437
106 809 362 1040 715 85 130 190 358 219 475 48 188 52 207 60 280 3 25 9 56
13 70 3 14 8 689 9 1500 l4 1475 -421 0 -420 0 -1 -1395 c0 -767 -2 -1411 -4
-1430 -17 -223 -77 -428 -168 -575 -130 -212 -356 -366 -617 -421 -91 -20
-340 -26 -435 -11 -170 26 -354 108 -475 210 -195 164 -322 423 -356 727 -4
36 -8 698 -8 1472 -1 773 -5 1410 -9 1415 -9 8 -827 12 -832 3z"/>
</g>
</svg>
